<svg xmlns="http://www.w3.org/2000/svg" width="460" height="312" viewBox="0 0 460 312">
    <defs>
        <linearGradient id="a" x1="50.011%" x2="50.011%" y1="100%" y2="0%">
            <stop offset="0%" stop-color="gray" stop-opacity=".25"/>
            <stop offset="54%" stop-color="gray" stop-opacity=".12"/>
            <stop offset="100%" stop-color="gray" stop-opacity=".1"/>
        </linearGradient>
        <linearGradient id="b" x1="49.989%" x2="49.989%" y1="100%" y2="0%">
            <stop offset="0%" stop-color="gray" stop-opacity=".25"/>
            <stop offset="54%" stop-color="gray" stop-opacity=".12"/>
            <stop offset="100%" stop-color="gray" stop-opacity=".1"/>
        </linearGradient>
        <linearGradient id="c" x1="-.04%" x2="99.998%" y1="49.997%" y2="49.997%">
            <stop offset="0%" stop-color="gray" stop-opacity=".25"/>
            <stop offset="54%" stop-color="gray" stop-opacity=".12"/>
            <stop offset="100%" stop-color="gray" stop-opacity=".1"/>
        </linearGradient>
    </defs>
    <g fill="none" fill-rule="evenodd">
        <path fill="#4D7CFE" d="M248.935 45.554c-28.228-.045-55.427-8.815-81.449-18.575S115.65 6.336 87.931 1.667C70.083-1.335 49.841-1.132 35.94 9.53c-13.374 10.258-17.203 27.283-19.037 43.03-1.375 11.837-1.992 24.27 3.314 35.117 3.688 7.533 9.975 13.747 14.425 20.931 15.483 24.988 6.296 56.79-8.616 82.273-6.997 11.93-15.195 23.381-20.473 36.02-5.277 12.64-7.415 26.984-1.963 39.49 5.411 12.4 17.58 21.443 30.598 27.612 26.484 12.575 57.26 15.342 87.213 16.466 66.315 2.49 132.73-1.948 198.972-6.41 24.513-1.647 49.136-3.31 73.134-8.23 13.325-2.73 27.04-6.799 36.467-15.788 11.967-11.406 14.368-30.086 5.602-43.542-14.708-22.59-53.31-26.955-63.897-51.366-5.829-13.44-.88-28.801 6.434-41.725 15.694-27.701 42.77-52.478 43.14-83.518.251-21.32-13.926-42.158-35.036-51.488-22.131-9.792-52.246-7.383-67.673 10.66-15.885 18.579-44.682 26.533-69.609 26.493z" opacity=".1"/>
        <path fill="#4D7CFE" d="M389.353 253.933s-4.985-3.29-9.926-.95c0 0 1.521 2.934 7.776 2.654l2.15-1.704zM389.966 254.111s1.517 5.777-2.284 9.708c0 0-2.288-2.386 0-8.219l2.284-1.489zM396.184 248.566s-.369-4.916-11.46-3.285c0 0-.052 3.172 3.842 4.673 3.894 1.5 5.675.235 7.618-1.388zM396.866 248.53s4.693 1.509.51 11.914c0 0-3.094-.694-3.65-4.832-.556-4.137 1.107-5.573 3.14-7.082zM403.149 241.56s.633-8.084-10.705-7.252c0 0-.811 7.302 8.701 9.196l2.004-1.943zM410.641 232.434s-1.557-9.16-12.887-6.43c0 0-.045 7.923 11.033 8.616l1.854-2.186zM416.113 222.999s-2.6-8.925-13.828-6.251c0 0 2.67 8.023 13.082 7.902l.746-1.651zM421.314 213.786s-2.544-9.26-13.386-6.49c0 0 3.618 8.799 12.672 8.06l.714-1.57zM424.668 205.033s-1.955-11.31-12.051-8.82c0 0 2.937 10.304 11.317 10.467l.734-1.647zM427.808 194.457s-2.345-11.418-12.575-8.112c0 0 4.012 10.786 11.853 9.67l.722-1.558zM429.755 184.613s-3.728-11.415-11.634-11.107c0 0 3.813 12.06 10.953 13.386l.681-2.28zM430.992 175.01s-4.056-13.742-10.49-12.684c0 0 2.808 10.507 10.263 14.823l.227-2.138zM431.682 163.54s-3.8-11.456-10.141-11.91c0 0 2.588 11.268 10.011 14.883l.13-2.974zM432.465 152.859s-4.742-11.468-8.924-11.723c0 0 2.056 11.285 8.518 13.605l.406-1.882zM432.988 142.912s-2.929-12.47-7.107-13.483c0 0 .576 10.181 6.69 14.412l.417-.929zM434.566 129.895s-3.067-9.922-6.462-11.435c0 0 .674 11.699 5.68 13.865l.782-2.43zM435.876 121.348l.621-17.5s-6.336 13.205-1.087 20.587l.466-3.087zM440.78 103.958s4.568-12.781 5.68-13.491c0 0-8.965 8.287-8.089 18.955l2.41-5.464zM403.457 241.504s8.04-1.055 7.797 10.312c0 0-7.265 1.18-9.634-8.215l1.837-2.097zM411.019 232.13s9.293-.033 8.518 11.601c0 0-7.796 1.391-10.372-9.407l1.854-2.194zM416.203 223.74s8.433-3.954 13.832 6.252c0 0-7.792 3.298-14.575-4.604l.743-1.647zM421.504 213.872s8.633-4.211 13.703 5.764c0 0-8.993 3.099-14.417-4.186l.714-1.578z"/>
        <path fill="#4D7CFE" d="M424.559 205.276s8.312-7.938 14.944.093c0 0-8.49 6.531-15.33 1.676l.386-1.769zM427.338 194.186s8.364-8.113 14.943.373c0 0-9.386 6.665-15.24 1.33l.297-1.703zM428.903 184.288s6.442-10.141 14.023-7.874c0 0-6.68 10.738-13.95 10.26l-.073-2.386zM430.802 174.946s6.49-12.774 12.627-10.547c0 0-4.677 9.817-12.794 12.701l.167-2.154zM431.248 162.894s6.673-10.051 12.924-8.826c0 0-5.452 10.193-13.569 11.735l.645-2.909zM431.76 152.632s5.167-11.277 9.374-11.379c0 0-2.483 11.204-9.03 13.277l-.345-1.898zM432.781 142.665s5.748-11.423 10.068-11.443c0 0-2.94 9.764-9.873 12.449l-.195-1.006zM433.65 130.597s4.3-9.451 7.857-10.522c0 0-2.15 11.52-7.387 13.029l-.47-2.507z"/>
        <path fill="#4D7CFE" d="M436.392 121.016l9.605-14.636s-2.458 14.437-11.009 17.443l1.404-2.807zM442.987 105.135s11.168-7.707 11.57-8.957c0 0-5.68 10.798-16.226 12.705l4.656-3.748zM443.653 101.666s12.822-12.327 16.096-12.31c0 0-10.576.482-16.405 11.653l.309.657z"/>
        <path fill="#444053" d="M433.771 132.426l.467.061c2.41-18.862 5.922-30.017 9.893-31.388l-.154-.443c-4.206 1.46-7.736 12.446-10.206 31.77z"/>
        <path fill="#444053" d="M430.23 177.522l.706.06c.146-1.76.26-3.565.336-5.358.674-15.613 1.72-29.944 3.091-40.69l-.405-.507c-1.375 10.766-2.714 25.535-3.387 41.165a142.271 142.271 0 0 1-.341 5.33z"/>
        <path fill="#444053" d="M376.186 262.914c.126-.057 12.55-5.602 25.446-18.838a102.393 102.393 0 0 0 18.599-26.367c5.959-12.14 9.593-27.06 10.814-41.554l-.734.345c-2.738 32.528-17.548 54.762-29.328 66.866-12.77 13.118-25.053 18.61-25.174 18.66l.377.888z"/>
        <path fill="#3F3D56" d="M425.808 19.828H36.033a3.472 3.472 0 0 0-3.472 3.472v10.117h396.72V23.3a3.472 3.472 0 0 0-3.473-3.472z"/>
        <path fill="#FFF" d="M32.561 33.417V261.08a7.001 7.001 0 0 0 7.001 7.002H422.28a7.001 7.001 0 0 0 7.002-7.002V33.417H32.56z"/>
        <circle cx="38.849" cy="26.517" r="1.623" fill="#FA5959" opacity=".8"/>
        <circle cx="43.311" cy="26.517" r="1.623" fill="#FED253" opacity=".8"/>
        <circle cx="47.773" cy="26.517" r="1.623" fill="#8CCF4D" opacity=".8"/>
        <g stroke="#3F3D56" opacity=".3">
            <path d="M47.772 47.205h366.702v206.878H47.772z"/>
            <path d="M95.638 47.205h270.97v206.878H95.638z"/>
            <path d="M143.504 47.205h175.238v206.878H143.504z"/>
            <path d="M191.37 47.205h79.506v206.878H191.37zM231.124 47.205v206.878"/>
            <path d="M47.772 77.223h366.702v146.843H47.772z"/>
            <path d="M47.772 106.835h366.702v87.619H47.772z"/>
            <path d="M47.772 136.447h366.702v28.395H47.772z"/>
        </g>
        <path fill="#3F3D56" d="M105.171 58.766h28.801v10.547h-28.801zM60.145 87.566h21.499v10.547H60.145zM151.82 58.766h28.801v10.547H151.82zM195.63 58.766h28.801v10.547H195.63zM236.194 58.766h28.801v10.547h-28.801zM281.626 58.766h28.801v10.547h-28.801zM327.87 58.766h28.801v10.547H327.87zM376.953 58.766h28.801v10.547h-28.801z" opacity=".1"/>
        <path fill="url(#a)" d="M162.172 115.941h18.712v18.116h-18.712z"/>
        <path fill="#4D7CFE" d="M162.497 116.253h18.067v17.491h-18.067z"/>
        <path fill="url(#a)" d="M200.725 112.014h18.712v18.116h-18.712z"/>
        <path fill="#FFAB2B" d="M201.049 112.327h18.067v17.491h-18.067z"/>
        <path fill="url(#a)" d="M274.957 173.672h18.712v18.116h-18.712z"/>
        <path fill="#FFAB2B" d="M275.282 173.985h18.067v17.491h-18.067z"/>
        <path fill="url(#b)" d="M110.161 83.656h18.712v18.116h-18.712z"/>
        <path fill="#FFAB2B" d="M110.481 83.968h18.067v17.491h-18.067z"/>
        <path fill="url(#b)" d="M147.342 109.617h18.712v18.116h-18.712z"/>
        <path fill="#FE4D97" d="M147.662 109.929h18.067v17.491h-18.067z"/>
        <path fill="url(#a)" d="M296.846 173.543h18.712v18.116h-18.712z"/>
        <path fill="#4D7CFE" d="M297.171 173.855h18.067v17.491h-18.067z"/>
        <path fill="url(#a)" d="M329.703 83.895h18.712v18.116h-18.712z"/>
        <path fill="#4D7CFE" d="M330.028 84.208h18.067v17.491h-18.067z"/>
        <path fill="url(#a)" d="M327.675 141.497h18.712v18.116h-18.712z"/>
        <path fill="#4D7CFE" d="M327.999 141.809h18.067V159.3h-18.067z"/>
        <path fill="url(#a)" d="M341.872 145.553h18.712v18.116h-18.712z"/>
        <path fill="#4D7CFE" d="M342.197 145.865h18.067v17.491h-18.067z"/>
        <path fill="url(#b)" d="M282.016 167.219h18.712v18.116h-18.712z"/>
        <path fill="#FE4D97" d="M282.336 167.531h18.067v17.491h-18.067z"/>
        <path fill="url(#b)" d="M284.044 112.457h18.712v18.116h-18.712z"/>
        <path fill="#FE4D97" d="M284.364 112.769h18.067v17.491h-18.067z"/>
        <path fill="#3F3D56" d="M60.145 115.961h21.499v10.547H60.145zM60.145 145.573h21.499v10.547H60.145zM60.145 175.185h21.499v10.547H60.145zM60.145 204.797h21.499v10.547H60.145zM60.145 234.409h21.499v10.547H60.145z" opacity=".1"/>
        <path fill="url(#c)" fill-rule="nonzero" d="M125.453 142.413c.6-.38.361-1.403-.255-1.756-.617-.353-1.383-.235-2.077-.097a.848.848 0 0 0-.446-.893v-.154c.405-.406.251-1.217-.244-1.574-.494-.357-1.265-.373-1.93-.34a2.572 2.572 0 0 0-.812-2.191.677.677 0 0 0-.446-.215c-.406 0-.52.52-.548.905a17.13 17.13 0 0 1-.499 2.997L105.59 160.19c-1.403 2.028 2.957-4.057 1.554-2.008a17.848 17.848 0 0 1-2.483 3.079 12.234 12.234 0 0 1-2.803 1.878 3.306 3.306 0 0 1-1.914-.544 7.707 7.707 0 0 1-1.842-1.821 35.952 35.952 0 0 1-2.973-4.418 5.724 5.724 0 0 1-.682-1.578c-.187-.876 0-1.825-.345-2.648a4.328 4.328 0 0 0-.543-.86l-.872-1.156v-.053c-.098-1.712-1.49-3.034-2.787-4.162-1.104-.966-2.3-1.972-3.756-2.158-.78-.102-1.578.049-2.357-.049-.637-.08-1.242-.32-1.874-.426a7.95 7.95 0 0 0-1.838-.036l-.26-.24a7.27 7.27 0 0 0 3.282-2.758c.6-.97.929-2.089 1.485-3.087.677-1.217 1.683-2.223 2.434-3.391 1.813-2.77 2.145-6.336 1.411-9.565-.734-3.23-2.454-6.162-4.462-8.778-3.894-5.038-10.425-6.896-16.574-5.923-.406.065-.812.142-1.217.232-1.035.217-2.045.54-3.014.96a7.707 7.707 0 0 0-3.29 2.569c-.226.333-.418.69-.572 1.062a6.26 6.26 0 0 0-.276.877 9.09 9.09 0 0 0-.15 2.742c.024.312.057.624.093.937l.061.47c.04.313.085.625.13.937.065.47.126.941.17 1.404.036.327.054.656.053.986v.247a4.028 4.028 0 0 1-.11.726c-.031.131-.072.26-.121.386a4.803 4.803 0 0 1-.572 1.05c-.316.441-.659.863-1.026 1.262l-.353.405c-.118.134-.231.272-.35.406a14.87 14.87 0 0 0-1.269 1.716 8.348 8.348 0 0 0-.499.94 6.734 6.734 0 0 0-.288.755 6.247 6.247 0 0 0-.219 1.055c0 .09 0 .179-.024.268v.531c.009.177.028.353.057.528.028.173.069.343.121.51.051.17.115.336.191.496 0 .044.04.089.065.133l.065.134c.044.09.09.175.13.264.06.13.106.265.134.406v.296a1.66 1.66 0 0 1-.6 1.034c-.082.077-.163.146-.248.22l-.13.105-.264.207-.251.202a5.107 5.107 0 0 0-.613.609 22.663 22.663 0 0 0-6.79.665 9.184 9.184 0 0 1-2.434.442 1.217 1.217 0 0 1-1.055-.442 1.554 1.554 0 0 1-.11-.973 8.397 8.397 0 0 0-.648-3.976 2.21 2.21 0 0 0-.65-.945.917.917 0 0 0-1.078-.057c.686 2.22.587 4.607-.28 6.762a21.844 21.844 0 0 1-1.562 2.933c-.925 1.578-1.444 3.383-2.268 5.018.921 3.12.714 6.45 1.217 9.67.45 2.998 1.497 5.87 2.548 8.714.811 2.146 1.655 4.385 3.375 5.894.554.559 1.302.884 2.089.908a3.65 3.65 0 0 0 1.622-.616 6.356 6.356 0 0 0 1.376-1.01c.152-.167.287-.347.405-.54.05.272.154.531.304.763a82.309 82.309 0 0 1 3.246-6.26c.348-.185.674-.408.973-.664 0 .073.037.146.057.219-.053.194-.101.405-.154.588-.053.182-.114.377-.17.56a18.488 18.488 0 0 1-.3.892c-.062.162-.13.353-.2.527-.068.175-.093.252-.146.373-.125.309-.255.609-.405.91.113.054.23.102.349.141l.077.024c.105.034.212.06.32.082h.118c.08.012.159.02.24.024h.352c.29-.013.578-.062.856-.146l.158.649c.405 1.458.666 2.953.779 4.462.077 1.704-.22 3.436.11 5.111.166.872.503 1.708.624 2.584.079.825.064 1.657-.044 2.479l-.568 5.975a5.111 5.111 0 0 1-.511 2.109c-.28.487-.735 1.043-.45 1.525.467-.124.943-.215 1.423-.272a50.6 50.6 0 0 0-.483 1.911c-.146.476-.185.98-.113 1.473.101.462.405.88.438 1.35.073.73-.434 1.375-.714 2.053-.714 1.728.045 3.675.811 5.387l2.24 5.078 1.837 4.166a228.029 228.029 0 0 1 1.623 3.724 120.882 120.882 0 0 1 5.849 17.54c.05.272.153.531.304.763.308.406.872.535 1.33.787 1.376.758 1.534 3.022.277 3.963.255 3.05-2.029 6-3.205 8.823-2.71 6.49-2.219 13.816-3.148 20.793l1.05-.613c.125.057.24.132.342.224-.025.13-.053.265-.086.405a6.356 6.356 0 0 1-.673 1.692c-.613 1.05-1.55 1.987-1.692 3.196-.085.73.138 1.46.134 2.195v.203c-.093-.09-.235-.082-.446.085-.33.347-.559.777-.661 1.245-.183.523-.329 1.055-.475 1.586l-.543 1.874a21.787 21.787 0 0 1-1.1 3.306 14.165 14.165 0 0 0-.973 2.24c-.145.63-.2 1.277-.166 1.922-.011.619.078 1.235.263 1.826a4.535 4.535 0 0 0 2.657 2.519c1.188.417 2.433.652 3.692.697.322.042.65.032.969-.028.342-.099.661-.266.937-.49 1.712-1.258 2.596-3.57 2.75-5.68a8.385 8.385 0 0 0-.23-1.29c.105-2.308-.232-4.628-.058-6.928.037.263.073.523.114.783l.406 2.584a.54.54 0 0 0-.138-.244 5.939 5.939 0 0 0-.155 2.957c.203.979.488 1.938.852 2.868l.552 1.542c.133.465.356.899.657 1.277.483.532 1.217.73 1.923.901 1.517.443 3.079.715 4.657.811.21.025.424-.015.612-.113.097-.072.189-.149.276-.232.14-.1.29-.187.446-.26a2.945 2.945 0 0 0 1.428-1.69 2.67 2.67 0 0 0-.264-2.187 5.107 5.107 0 0 0-.628-.763l-2.775-2.94a17.483 17.483 0 0 0-1.355-1.437.507.507 0 0 0-.446-.146c-.754-1.882-.657-4.08-.527-6.145.04-.617.377-1.894.51-2.945a4.75 4.75 0 0 0 1.473-.811c.423-.31.723-.757.848-1.266 1.4-7.147 3.65-14.076 5.776-21.04.211-.686.406-1.376.621-2.061.09-.292.17-.589.256-.885.085-.296.142-.478.21-.718.114-.405.228-.811.337-1.217.033-.11.061-.219.094-.328a.381.381 0 0 1 0-.065c.133-.499.263-.998.405-1.497.049-.195.102-.381.15-.576.159-.633.317-1.274.467-1.91.025-.088.044-.178.057-.268.054-.225.039-.462-.045-.678a.88.88 0 0 0-.158-.227 2.555 2.555 0 0 0-.142-.154 2.24 2.24 0 0 1-.154-.174 1.57 1.57 0 0 1-.284-.532v-.584c0-.178-.025-.406-.037-.617a6.49 6.49 0 0 1 .183-.81c.048-.159.101-.317.15-.475.049-.159.122-.406.186-.589.243-.276.375-.633.37-1.002.251-.627.528-1.242.831-1.845a5.565 5.565 0 0 0 .742-1.996 7.918 7.918 0 0 0-.235-1.894c-.405-2.637.811-5.205 1.708-7.708a34.184 34.184 0 0 0 1.509-5.679c.264-1.48.446-3.034 1.237-4.316.261-.36.484-.746.665-1.152.123-.424.183-.864.179-1.306.1-1.791.533-3.548 1.278-5.18.165-.316.277-.657.332-1.01a.37.37 0 0 0 0-.069v-.097l.207-.033c.353-2.235.71-4.725.467-6.977a10.64 10.64 0 0 0-3.566-6.733h.04c.698-.353 1.01-1.217 1.023-1.98a3.858 3.858 0 0 0-1.436-3.014 1.44 1.44 0 0 1-.487-.503 1.53 1.53 0 0 1-.06-.653 3.338 3.338 0 0 0-2.057-3.1.775.775 0 0 1-.337-.194.811.811 0 0 1-.09-.592 3.622 3.622 0 0 0-1.748-3.31c.163-.868.325-1.777.077-2.629-.247-.852-1.046-1.622-1.922-1.5.714-1.948-.3-4.114-.033-6.17.118-.885.47-1.733.515-2.62.041-.812-.158-1.68.236-2.386.393-.706 1.322-1.258 1.083-2.028-.102-.329-.406-.556-.548-.876-.142-.321.426-.812.718-.633.138-.106.276-.215.406-.329.042.413.124.82.243 1.217.199.665.503 1.29.71 1.951.316 1.01.406 2.105.917 3.03.811 1.481 2.527 2.215 3.687 3.444.682.718 1.172 1.623 1.874 2.304.533.498 1.118.937 1.744 1.31l3.749 2.434c.388.283.822.498 1.281.637a2.186 2.186 0 0 0 2.576-1.854 2.531 2.531 0 0 1-.92-.571c.052 0 .105 0 .158-.025a5.91 5.91 0 0 0 2.405-1.278c2.67-2.125 4.588-5.026 6.462-7.877 1.963-2.99 11.41-10.9 11.41-10.9v-3.204a11.537 11.537 0 0 0 3.149-2.682 3.476 3.476 0 0 0 .79-2.028 1.805 1.805 0 0 0-1.16-1.773zM46.88 150.1a48.832 48.832 0 0 1-.67 3.473 32.995 32.995 0 0 1-1.119 3.922l-.146.406c-.134-.252-.267-.5-.405-.755-.305-.636-.552-1.298-.812-1.959l-1.565-4.219c-.203-.547-.406-1.18-.102-1.683.223-.308.534-.542.893-.67 1.1-.504 2.25-.894 3.431-1.164a9.399 9.399 0 0 0 1.104-.292c-.291.96-.495 1.945-.609 2.941zm1.732-5.273a.629.629 0 0 1 0-.613c.118-.118.255-.214.406-.283l.118-.082c-.163.337-.345.662-.524.99v-.012zm3.245-4.588c-.46.382-.879.812-1.249 1.282a13.386 13.386 0 0 0-1.07 1.655 1.217 1.217 0 0 0-.447-1.217 2.584 2.584 0 0 1-.406-.276.852.852 0 0 1 .17-1.192c.374-.256.81-.405 1.262-.43l1.87-.276c-.056.158-.093.312-.134.466l.004-.012zm17.508 135.749a6.786 6.786 0 0 0-.11-1.675h.69c-.19.539-.385 1.111-.58 1.675z"/>
        <path fill="#303D5C" d="M67.459 110.704c-3.246.524-6.856 1.773-8.113 4.815-.937 2.3-.211 4.888.028 7.359.09.652.068 1.315-.069 1.959-.268 1.042-1.006 1.886-1.72 2.693a14.283 14.283 0 0 0-2.47 3.465c-.584 1.298-.77 2.839-.166 4.137.205.334.343.704.405 1.091.04.844-.844 1.38-1.493 1.919-2.433 2.028-2.332 5.679-2.352 8.855a44.909 44.909 0 0 1-4.215 18.737 5.724 5.724 0 0 0 6.397-.836 21.317 21.317 0 0 1-1.452 4.186c2.06.998 4.547-.64 5.581-2.685 1.035-2.044 1.157-4.421 1.89-6.592.735-2.17 2.029-4.056 2.6-6.242.183-.722.297-1.493.74-2.094.372-.434.81-.808 1.297-1.107a12.668 12.668 0 0 0 4.588-6.218c2.523.555 5.099 1.115 7.67.88 2.573-.236 5.201-1.4 6.56-3.598.6-.97.925-2.085 1.48-3.083.682-1.217 1.684-2.223 2.435-3.387 1.809-2.77 2.141-6.328 1.407-9.557-.734-3.23-2.434-6.15-4.462-8.766-3.886-5.046-10.417-6.916-16.566-5.93z"/>
        <path fill="#4D7CFE" d="M46.978 151.277a53.321 53.321 0 0 1-.666 3.468 33.94 33.94 0 0 1-1.12 3.918 3.74 3.74 0 0 0-.352 1.802c.08.38.227.742.434 1.07 1.48 2.633 3.484 5.176 3.65 8.194.041.75 0 1.566.406 2.187a82.295 82.295 0 0 1 3.789-7.204c1.444-2.434 3.05-4.925 3.464-7.74a14.502 14.502 0 0 0-.052-3.975c-.191-1.481-.524-2.998-1.424-4.183-.982-1.281-3.651-3.216-5.408-2.815-2.04.467-2.462 3.627-2.721 5.278z"/>
        <path fill="#EE8E9E" d="M99.261 165.466c1.939-.79 3.919-1.622 5.456-3.05a17.848 17.848 0 0 0 2.482-3.08l4.564-6.583c1.079-1.566 2.194-3.208 2.434-5.095a16.777 16.777 0 0 0 4.555-10.36c.033-.385.162-.892.548-.904.17.012.33.09.446.215.605.557.907 1.37.811 2.186.666-.032 1.388-.049 1.931.34.544.39.69 1.356.106 1.676a.836.836 0 0 1 .58.945c.697-.138 1.464-.251 2.08.098.617.348.853 1.37.256 1.752a1.81 1.81 0 0 1 1.156 1.732 3.44 3.44 0 0 1-.79 2.028c-1.753 2.353-4.844 3.302-6.876 5.42-.668.74-1.267 1.54-1.79 2.389l-5.885 8.957c-1.87 2.84-3.789 5.748-6.458 7.865a5.91 5.91 0 0 1-2.405 1.278 2.649 2.649 0 0 1-2.528-.702c-.588-.67-.677-1.623-.734-2.519-.097-1.509.162-3.067.061-4.588z"/>
        <path fill="#303D5C" d="M79.55 289.86c.236.233.446.489.63.763.398.656.494 1.451.263 2.183a2.917 2.917 0 0 1-1.424 1.687 2.6 2.6 0 0 0-.45.26 2.555 2.555 0 0 1-.276.235c-.19.095-.401.134-.612.114a21.65 21.65 0 0 1-4.653-.812c-.698-.174-1.436-.373-1.923-.9a3.68 3.68 0 0 1-.657-1.278l-.552-1.537a17.824 17.824 0 0 1-.847-2.864 5.874 5.874 0 0 1 .154-2.953.929.929 0 0 1 .203.604 6.612 6.612 0 0 0 1.184 2.864c.129.212.284.407.463.58.403.31.88.51 1.383.58.969.21 1.954.337 2.945.377a.811.811 0 0 0 .405-.048.726.726 0 0 0 .337-.406 1.793 1.793 0 0 0 0-1.217c-.268-.75-1.002-1.241-1.35-1.955-.264-.527.097-1.107.632-.661.48.452.935.931 1.359 1.436l2.787 2.949z"/>
        <path fill="#EE8E9E" d="M74.452 279.205c-.158 2.478-.268 5.155 1.087 7.236.49.747 1.144 1.375 1.7 2.077.318.351.53.786.608 1.254.077.908-.775 1.687-1.671 1.857-.897.17-1.813-.113-2.681-.405a6.458 6.458 0 0 1-2.276-1.071c-1.18-.998-1.493-2.661-1.728-4.186l-.552-3.546a8.478 8.478 0 0 1 .503-5.354l.909-2.661c.06-.259.202-.491.405-.661.212-.117.455-.162.694-.13.868.044 3.063.36 3.485 1.282.357.799-.422 3.354-.483 4.308z"/>
        <path fill="#000" d="M74.452 279.205c-.158 2.478-.268 5.155 1.087 7.236.49.747 1.144 1.375 1.7 2.077.318.351.53.786.608 1.254.077.908-.775 1.687-1.671 1.857-.897.17-1.813-.113-2.681-.405a6.458 6.458 0 0 1-2.276-1.071c-1.18-.998-1.493-2.661-1.728-4.186l-.552-3.546a8.478 8.478 0 0 1 .503-5.354l.909-2.661c.06-.259.202-.491.405-.661.212-.117.455-.162.694-.13.868.044 3.063.36 3.485 1.282.357.799-.422 3.354-.483 4.308z" opacity=".05"/>
        <path fill="#303D5C" d="M93.951 205.738a.45.45 0 0 1 0 .07c-.051.35-.164.69-.332 1.001a14.408 14.408 0 0 0-1.282 5.168c.004.442-.056.882-.179 1.306a6.49 6.49 0 0 1-.665 1.148c-.791 1.286-.974 2.84-1.237 4.312a34.074 34.074 0 0 1-1.51 5.655c-.904 2.507-2.12 5.07-1.707 7.707.155.62.234 1.256.235 1.895a5.5 5.5 0 0 1-.742 1.991c-.303.6-.573 1.216-.811 1.846a25.68 25.68 0 0 0-.706 2.06c-.244.849-.406 1.854.154 2.536.174.167.328.353.458.556.106.31.106.647 0 .957a139.234 139.234 0 0 1-1.922 7.204c-2.28 7.655-4.868 15.232-6.393 23.073-.22 1.128-1.668 1.935-2.787 2.183a3.65 3.65 0 0 1-3.205-.856 3.719 3.719 0 0 1-.219-.22c-1.176-1.265-1.35-3.208-1.261-4.96.405-8.069 4.462-15.455 6.393-23.296a45.067 45.067 0 0 0 1.257-8.649c.45-9.735.633-20.03-2.121-29.389-.572-1.947-1.25-4.145-.22-5.89.65-1.103 1.854-1.756 3.047-2.227a19.597 19.597 0 0 1 15.195.406c.004.195-.004.39-.024.584a5.987 5.987 0 0 0 .308 2.686c.158.362.251.749.276 1.143zM60.6 281.7l-.516 1.873a21.24 21.24 0 0 1-1.095 3.298 14.165 14.165 0 0 0-.974 2.24c-.144.63-.2 1.277-.166 1.922a5.74 5.74 0 0 0 .264 1.821 4.523 4.523 0 0 0 2.652 2.515c1.188.418 2.433.652 3.692.694.322.045.65.037.97-.024.342-.099.66-.266.936-.491 1.712-1.253 2.592-3.566 2.747-5.679a6.977 6.977 0 0 0-.288-1.452c-.134-.179-1.428.551-.873 1.164.812.9-1.578.434-2.795.357a10.51 10.51 0 0 1-1.586-.26l-1.971-.405c-.645-.138-1.387-.361-1.623-.978-.235-.617.268-1.355.658-1.955 1.03-1.594 1.298-3.545 1.537-5.428.045-.369.507-2.766-.446-2.028a2.69 2.69 0 0 0-.661 1.245c-.175.508-.32 1.039-.463 1.57z"/>
        <path fill="#000" d="M85.149 242.437c-.56-.681-.406-1.687-.15-2.535.089-.317.19-.629.296-.941l-7.74-2.62c-.028.697-.06 1.387-.093 2.076a44.832 44.832 0 0 1-1.254 8.652c-1.935 7.838-5.995 15.224-6.393 23.288-.093 1.858.106 3.935 1.48 5.185a3.65 3.65 0 0 0 3.201.86c1.124-.248 2.568-1.06 2.791-2.187 1.534-7.84 4.11-15.414 6.393-23.077a126.75 126.75 0 0 0 1.923-7.188 1.477 1.477 0 0 0 0-.953 2.84 2.84 0 0 0-.454-.56z" opacity=".05"/>
        <path fill="#EE8E9E" d="M63.763 273.197c-.612 1.055-1.545 1.988-1.687 3.196-.086.727.138 1.457.134 2.191a7.12 7.12 0 0 1-.32 1.789 99.838 99.838 0 0 1-2.605 8.056 2.21 2.21 0 0 0-.207 1.095c.097.62.702 1.03 1.278 1.278 1.845.787 3.922.734 5.926.653a3.111 3.111 0 0 0 1.667-.406c.718-.49.897-1.46.941-2.328.138-2.515-.288-5.042 0-7.54.102-.914.293-1.81.435-2.715.198-1.257.3-2.58-.114-3.784a8.677 8.677 0 0 0-1.42-2.381 7.484 7.484 0 0 0-1.967-1.964c-.235-.138-.905-.568-1.144-.3-.122.138-.07.507-.085.677a7.103 7.103 0 0 1-.138.78 6.421 6.421 0 0 1-.694 1.703z"/>
        <path fill="#000" d="M78.634 208.878c-.361.491-.288 1.172-.142 1.765.256 1.07.686 2.097 1.034 3.14a43.688 43.688 0 0 1 1.331 5.71c.324 1.745 1.014 3.688.734 5.445a38.788 38.788 0 0 1 4.11 12.903c.158 1.156-2.41 2.649-2.361 3.813.097 2.32 1.947 2.507.584 4.357-.07.093.51 2.166.434 2.255-.556.67-1.262 1.217-1.858 1.83a14.064 14.064 0 0 0-1.96 2.867c-3.529 6.377-8.632 13.606-7.058 20.725a1.262 1.262 0 0 1-.673 1.278 3.489 3.489 0 0 1-1.493.344h-.243c-1.177-1.265-1.351-3.208-1.262-4.96.406-8.069 4.462-15.456 6.393-23.297a45.067 45.067 0 0 0 1.258-8.648c.45-9.736.633-20.03-2.122-29.389-.572-1.947-1.25-4.146-.219-5.89.65-1.103 1.854-1.756 3.047-2.227a19.597 19.597 0 0 1 15.195.406c.004.195-.004.39-.024.584a5.987 5.987 0 0 0 .308 2.685c.17.368.273.764.304 1.169 0 0 .138-1.57.134-1.546-3.144.45-6.462 2.507-9.634 2.973a22.485 22.485 0 0 0-4.831 1.063c-.382.12-.723.344-.986.645z" opacity=".05"/>
        <path fill="#303D5C" d="M56.733 191.606a58.062 58.062 0 0 0-1.123 4.097c-.145.477-.183.98-.114 1.472.102.463.406.876.438 1.347.073.73-.434 1.375-.714 2.053-.714 1.724.049 3.67.812 5.378l2.239 5.071 1.841 4.162a303.03 303.03 0 0 1 1.623 3.72 120.61 120.61 0 0 1 5.845 17.52c.05.27.153.53.3.762.313.406.877.535 1.33.787 1.38.754 1.538 3.018.277 3.959.26 3.046-2.028 5.987-3.2 8.81-2.71 6.49-2.22 13.793-3.149 20.77l1.051-.617c1.01.462.974 1.894 1.517 2.864.811 1.456 2.807 1.659 4.462 1.55a3.456 3.456 0 0 0 1.489-.345c.471-.242.74-.753.673-1.278-1.57-7.12 3.53-14.348 7.063-20.725a14.047 14.047 0 0 1 1.955-2.867c.6-.633 1.302-1.165 1.862-1.83 1.557-1.87 1.756-4.507 1.65-6.94a38.853 38.853 0 0 0-4.42-16.392c.283-1.753-.406-3.696-.731-5.44a42.702 42.702 0 0 0-1.343-5.708c-.349-1.05-.774-2.072-1.034-3.143-.142-.593-.22-1.274.142-1.765.267-.303.612-.526.998-.645a22.485 22.485 0 0 1 4.831-1.063l10.883-1.561c.35-2.235.706-4.726.463-6.973a10.721 10.721 0 0 0-7.679-8.97c-.475-.125-1.03-.206-1.42.094a56.628 56.628 0 0 0-28.817 1.846z"/>
        <path fill="#EE8E9E" d="M66.603 132.824a5.342 5.342 0 0 1-.475 3.115 4.892 4.892 0 0 1-1.217 1.367 9.33 9.33 0 0 1-3.586 1.781c-.77.195-1.622.325-2.146.937-.762.921-.251 2.316.406 3.322 1.128 1.753 2.693 3.339 4.701 3.886 1.623.439 3.315.17 4.953.455 1.189.207 2.308.697 3.48.977 3.39.776 6.941-.215 9.44-2.632-1.744-1.339-3.553-2.763-4.462-4.767a6.762 6.762 0 0 1-.34-4.559c.405-1.485 1.358-2.929 1.066-4.462-.292-1.533-1.785-2.56-3.245-3.07a21.175 21.175 0 0 0-4.113-.816c-.767-.106-5.635-1.18-5.939-.65-.17.301.84 2.078.966 2.471.296.853.468 1.743.51 2.645z"/>
        <circle cx="72.74" cy="126.504" r="9.873" fill="#EE8E9E"/>
        <path fill="#4D7CFE" d="M67.523 142.823l6.698 1.128c1.646.335 3.321.503 5.001.503a13.934 13.934 0 0 1 2.759 0c.632.105 1.237.345 1.87.426.783.097 1.578-.053 2.36.048 1.453.187 2.65 1.193 3.753 2.154 1.294 1.128 2.685 2.434 2.786 4.158.019.196-.01.393-.08.576a1.692 1.692 0 0 1-.5.52c-1.217 1.01-1.918 2.514-2.795 3.845a14.818 14.818 0 0 1-3.326 3.59c-.292-.187-.848.304-.722.629.126.324.446.547.552.876.24.758-.698 1.318-1.087 2.028-.39.71-.19 1.574-.232 2.381-.048.889-.405 1.736-.515 2.617-.271 2.056.747 4.222.029 6.165.88-.11 1.675.65 1.922 1.497.248.848.09 1.76-.077 2.629a3.614 3.614 0 0 1 1.753 3.302.568.568 0 0 0 .405.787 3.343 3.343 0 0 1 2.057 3.095 1.55 1.55 0 0 0 .06.657c.12.203.285.374.484.499a3.846 3.846 0 0 1 1.436 3.01c0 .783-.325 1.622-1.019 1.975-1.42.722-2.94 1.002-4.498 1.339-1.435.339-2.889.598-4.353.775-1.349.11-2.703.152-4.056.125l-8.957-.036c-2.519 0-5.038 0-7.549-.19-2.344-.159-4.742-.451-7.013.165-.284-.482.17-1.038.45-1.52.32-.659.495-1.378.511-2.11l.568-5.967c.108-.82.123-1.65.045-2.474-.122-.88-.455-1.712-.625-2.584-.325-1.672-.029-3.4-.106-5.103a23.37 23.37 0 0 0-.783-4.463l-1.776-7.301c-.284-1.172-.434-2.535-.872-3.65a280.386 280.386 0 0 0-4.296-10.434c-.11-.305-.08-.643.081-.925l1.48-2.653a16.79 16.79 0 0 1 1.355-2.162 8.519 8.519 0 0 1 4.998-3.067 8.81 8.81 0 0 1 5.813.86c.69.37 1.33.812 2.028 1.177 1.197.568 2.657 1.192 3.983 1.103z"/>
        <path fill="#4D7CFE" d="M91.286 149.326l2.333 3.11c.214.265.396.554.543.86.349.812.158 1.77.345 2.642.145.558.376 1.09.685 1.578a35.494 35.494 0 0 0 2.966 4.409 7.638 7.638 0 0 0 1.845 1.821c.725.5 1.63.662 2.483.442a1.53 1.53 0 0 0-.811.739c-.889 1.76-.954 3.845-.576 5.776.106.663.325 1.302.649 1.89.324.594.85 1.05 1.484 1.286a2.182 2.182 0 0 1-2.576 1.85 4.19 4.19 0 0 1-1.277-.637l-3.748-2.434a10.43 10.43 0 0 1-1.745-1.31c-.702-.698-1.188-1.582-1.87-2.3-1.16-1.217-2.864-1.963-3.683-3.44-.515-.925-.604-2.028-.92-3.026-.208-.661-.512-1.286-.71-1.951-.617-2.053-.171-4.304.766-6.23.937-1.928 2.43-3.437 3.817-5.075z"/>
        <path fill="#303D5C" d="M82.496 120.874a13.086 13.086 0 0 0-3.473-3.615c-1.845-1.375-3.967-2.519-6.267-2.648a6.782 6.782 0 0 0-2.819.458c-.045-2.787-.734-4.645-2.478-4.365-3.246.524-6.856 1.773-8.113 4.815-.937 2.3-.211 4.888.028 7.359.09.652.068 1.315-.069 1.959-.268 1.042-1.006 1.886-1.72 2.693a14.283 14.283 0 0 0-2.47 3.465c-.584 1.298-.77 2.839-.166 4.137.205.334.343.704.405 1.091.04.844-.844 1.38-1.493 1.919-2.433 2.028-2.332 5.679-2.352 8.855a44.909 44.909 0 0 1-4.215 18.737 5.724 5.724 0 0 0 6.397-.836 21.317 21.317 0 0 1-1.452 4.186c2.06.998 4.547-.64 5.581-2.685 1.035-2.044 1.157-4.421 1.89-6.592.735-2.17 2.029-4.056 2.6-6.242.183-.722.297-1.493.74-2.094.372-.434.81-.808 1.297-1.107 2.126-1.525-1.006-13.082-.174-15.565 1.217.272 3.509-5.679 4.803-11.763a6.125 6.125 0 0 0 2.81.28 3.48 3.48 0 0 1 1.003-.07c.311.065.608.186.876.358a22.176 22.176 0 0 0 2.994 1.537c2.141.811 4.494.694 6.778.58a6.754 6.754 0 0 0-.941-4.847z"/>
        <g fill="#000" opacity=".1">
            <path d="M48.454 165.734a44.787 44.787 0 0 0 4.235-18.72c.02-3.165-.085-6.84 2.353-8.856.649-.54 1.533-1.075 1.493-1.918a3.046 3.046 0 0 0-.406-1.092c-.604-1.29-.406-2.84.162-4.137a14.198 14.198 0 0 1 2.475-3.464c.71-.812 1.452-1.651 1.715-2.694.136-.644.161-1.307.073-1.96-.243-2.47-.965-5.058-.028-7.358 1.217-2.945 4.62-4.206 7.784-4.758a1.78 1.78 0 0 0-.851-.057c-3.246.524-6.856 1.773-8.113 4.815-.937 2.3-.211 4.888.028 7.359.09.652.068 1.315-.069 1.96-.268 1.042-1.006 1.885-1.72 2.693a14.283 14.283 0 0 0-2.47 3.464c-.584 1.298-.77 2.84-.166 4.137.205.334.343.705.405 1.092.04.843-.844 1.379-1.493 1.918-2.433 2.028-2.332 5.68-2.352 8.855a44.909 44.909 0 0 1-4.215 18.72 5.55 5.55 0 0 0 3.136.589 5.354 5.354 0 0 1-1.976-.588zM53.399 169.068a21.317 21.317 0 0 0 1.44-4.186c-.417.381-.89.694-1.404.929a21.223 21.223 0 0 1-1.216 3.245 3.083 3.083 0 0 0 1.906.243 3.03 3.03 0 0 1-.726-.23zM71.097 115.069a6.803 6.803 0 0 1 1.882-.438h-.223a6.608 6.608 0 0 0-1.667.126c.004.089.008.198.008.312zM77.819 125.129a22.128 22.128 0 0 1-2.99-1.537 2.596 2.596 0 0 0-.88-.357 3.038 3.038 0 0 0-.917.056c.22.08.432.181.633.3a22.177 22.177 0 0 0 2.994 1.538c1.612.532 3.31.752 5.005.649-1.309 0-2.609-.22-3.845-.65zM70.136 123.024c0 .089-.037.178-.057.267.486.073.98.086 1.468.04a6.49 6.49 0 0 1-1.411-.307z"/>
        </g>
        <path fill="#EE8E9E" d="M49.586 168.813a3.626 3.626 0 0 1-.974 2.884 6.393 6.393 0 0 1-1.375 1.01 3.65 3.65 0 0 1-1.622.612 3.087 3.087 0 0 1-2.085-.904c-1.72-1.51-2.58-3.744-3.375-5.89-1.05-2.84-2.098-5.708-2.548-8.705-.482-3.213-.276-6.54-1.196-9.659.81-1.622 1.338-3.431 2.267-5.005a23.312 23.312 0 0 0 1.562-2.929c.862-2.155.96-4.54.276-6.758a.917.917 0 0 1 1.079.057c.295.253.518.579.649.945a8.38 8.38 0 0 1 .649 3.971c-.07.327-.031.667.11.97.255.315.65.482 1.054.446a9.52 9.52 0 0 0 2.434-.442 22.615 22.615 0 0 1 7.508-.62 3.622 3.622 0 0 1 1.465.356c.461.23.753.701.754 1.217l-6.003.88a2.474 2.474 0 0 0-1.262.43.852.852 0 0 0-.17 1.189c.127.103.262.196.405.276a1.217 1.217 0 0 1-.048 1.975c-.151.07-.289.166-.406.284-.243.329.081.763.187 1.16.093.6-.195 1.196-.722 1.497a5.018 5.018 0 0 1-1.676.564 17.97 17.97 0 0 0-3.427 1.164c-.359.128-.67.361-.893.67-.296.502-.101 1.135.102 1.683l1.565 4.21c.244.662.491 1.323.812 1.96.405.81.888 1.598 1.298 2.433.41.836.677 1.562.977 2.357.783 2.146 2.361 3.444 2.629 5.712z"/>
        <path fill="url(#a)" d="M103.76 141.497h18.712v18.116H103.76z"/>
        <path fill="#4D7CFE" d="M104.084 141.809h18.067V159.3h-18.067z"/>
        <path fill="#EE8E9E" d="M119.02 140.43c-.334.248-.575.6-.686 1.002a.406.406 0 0 0 .159.454c.09.029.186.029.275 0 .45-.08.87-.277 1.217-.572-.138.073-.26.173-.36.292a.406.406 0 0 0-.05.438c.101.122.248.197.406.207a3.882 3.882 0 0 0 1.74-.081 2.39 2.39 0 0 0-.722.426.97.97 0 0 0-.328.75c0 .108.048.21.13.28.059.038.125.061.194.07a4.69 4.69 0 0 0 1.623 0 .832.832 0 0 0 .681-.406 1.022 1.022 0 0 0-.158-.783 4.377 4.377 0 0 1-.405-1.98.779.779 0 0 0-.057-.405.722.722 0 0 0-.361-.264c-.572-.252-1.351-.6-1.988-.406a4.182 4.182 0 0 0-1.31.978z"/>
    </g>
</svg>
